<?xml version="1.0" encoding="utf-8"?><svg viewBox="0 0 98 98" xmlns="http://www.w3.org/2000/svg" xmlns:xlink="http://www.w3.org/1999/xlink"><style>:root>svg{display:none}:root>svg:target{display:block}</style><svg fill="#fff" viewBox="0 0 50 50" id="close" xmlns="http://www.w3.org/2000/svg"><path d="M9.156 6.313L6.312 9.155 22.157 25 6.22 40.969 9.03 43.78 25 27.844 40.938 43.78l2.843-2.843L27.844 25 43.687 9.156l-2.843-2.844L25 22.157z"/></svg><svg viewBox="0 0 98 98" id="leftArr" xmlns="http://www.w3.org/2000/svg"><path d="M23.914 74l.004-16.137L98 57.867V40.102H23.914L23.918 24 0 49.002z"/></svg><svg viewBox="0 0 24 24" id="leftRightArr" xmlns="http://www.w3.org/2000/svg"><g data-name="Layer 2"><path d="M18.71 18.71l3.7-3.71-3.7-3.71-1.42 1.42 1.3 1.29H10v2h8.59l-1.3 1.29 1.42 1.42zM6.71 11.29L5.41 10H14V8H5.41l1.3-1.29-1.42-1.42L1.59 9l3.7 3.71 1.42-1.42z"/></g></svg><svg viewBox="0 0 18 18" id="phone" xmlns="http://www.w3.org/2000/svg"><path d="M16.343 12.098a10.49 10.49 0 01-3.236-.513.896.896 0 00-.926.22l-1.44 1.806c-2.593-1.238-5.023-3.575-6.315-6.261l1.787-1.522a.935.935 0 00.22-.935 10.223 10.223 0 01-.513-3.236.916.916 0 00-.907-.907H1.84C1.346.75.75.97.75 1.657c0 8.516 7.086 15.593 15.593 15.593.65 0 .907-.578.907-1.082v-3.162a.916.916 0 00-.907-.908z"/></svg><svg viewBox="0 0 50 50" id="tg" xmlns="http://www.w3.org/2000/svg"><path d="M44.377 5.986c-.487.022-.961.157-1.389.328-.423.17-2.86 1.21-6.457 2.748a20314.52 20314.52 0 00-12.91 5.528c-9.272 3.972-18.383 7.88-18.383 7.88l.067-.025s-.55.184-1.108.573a3.078 3.078 0 00-.824.81 2.145 2.145 0 00-.357 1.432c.237 1.925 2.232 2.47 2.232 2.47l.008.004 8.902 3.047c.227.757 2.7 9.012 3.244 10.76.3.966.582 1.524.875 1.904.147.19.301.338.471.446.068.042.139.075.209.103h.004c.009.004.017.004.025.008l-.023-.006c.016.007.032.018.049.024.031.01.05.01.092.02 1.02.355 1.863-.306 1.863-.306l.035-.027 5.469-5.072 8.875 6.92.111.05c1.553.69 2.958.305 3.736-.328s1.084-1.449 1.084-1.449l.034-.086 6.521-33.99c.167-.76.19-1.418.033-2.012-.157-.594-.54-1.11-1.02-1.396a2.588 2.588 0 00-1.468-.358zm.053 2.034c.197-.01.344.013.39.04.047.028.067.024.112.192.044.167.068.52-.053 1.072l-.004.012-6.484 33.793c-.016.034-.15.347-.46.598-.314.256-.664.456-1.593.066l-9.705-7.568-.274-.215-.005.006-2.903-2.178 16.31-19.19A1 1 0 0038.976 13a1 1 0 00-.53.168L14.844 28.902 5.928 25.85s-.886-.493-.928-.836c-.002-.02-.013-.002.033-.07.046-.07.162-.185.307-.286.29-.202.62-.324.62-.324l.034-.012.033-.013s9.112-3.91 18.383-7.881c4.636-1.986 9.312-3.988 12.908-5.526 3.596-1.537 6.194-2.644 6.414-2.732.25-.1.5-.141.698-.15zM33.613 18.793L21.244 33.346l-.006.006a1 1 0 00-.054.072 1 1 0 00-.055.084 1 1 0 00-.131.385 1 1 0 000 .007l-1.611 7.246c-.027-.078-.046-.106-.075-.199v-.002c-.511-1.644-2.845-9.429-3.167-10.506l17.468-11.646zM22.641 35.73l2.222 1.668-3.265 3.028 1.043-4.696z"/></svg><svg viewBox="0 0 50 50" id="vb" xmlns="http://www.w3.org/2000/svg"><path d="M24.426 3c-1.363.008-2.73.09-4.11.258-2.636.324-5.25.863-7.757 2.015-3.989 1.832-6.817 4.942-7.637 9.461a59.512 59.512 0 00-.79 5.786c-.308 3.777-.116 7.566.954 11.289.844 2.933 2.398 5.57 5.121 7.28 1.152.724 2.672 1.075 3.465 1.442.223.106.277.168.289.184.012.012.043.039.039.273-.027 2.39 0 7.016 0 7.016l.004.996h1.785l.29-.281s4.534-4.364 6.175-6.16c.297-.32.45-.5.48-.52.028-.02-.02-.031.286-.039 2.152-.043 4.3-.125 6.449-.242 2.832-.156 5.718-.426 8.496-1.586 2.418-1.012 4.437-2.664 5.66-5.14 1.25-2.54 1.918-5.231 2.168-8.016.414-4.637.27-9.282-1.012-13.86-.754-2.683-2.27-4.953-4.593-6.554-2.782-1.915-5.918-2.633-8.989-3.09a46.484 46.484 0 00-5.41-.496c-.453-.012-.906-.02-1.363-.016zm1.308 2.016c1.723.046 3.446.214 5.172.472 2.961.442 5.754 1.114 8.149 2.762 1.941 1.336 3.152 3.14 3.8 5.441 1.196 4.282 1.348 8.668.946 13.149-.23 2.582-.844 5.015-1.973 7.308-.996 2.024-2.55 3.309-4.637 4.18-2.421 1.012-5.054 1.281-7.828 1.434-2.125.117-4.254.195-6.383.238-.535.012-1.058.152-1.43.426-.37.273-.538.527-.769.777-1.172 1.281-3.508 3.535-4.781 4.77-.008-1.493-.02-3.297 0-4.961.008-.512-.11-1.035-.402-1.45-.293-.414-.696-.664-1.082-.843-1.13-.524-2.606-.922-3.246-1.324-2.239-1.407-3.508-3.516-4.262-6.141-.988-3.434-1.176-6.969-.883-10.567.156-1.867.426-3.738.766-5.593.71-3.91 2.945-6.371 6.5-8.004 2.246-1.031 4.644-1.54 7.171-1.848a34.192 34.192 0 015.172-.226zM26.156 10c-.824 0-1.625.094-2.402.266-.535.125-.875.66-.754 1.199s.66.875 1.2.754A8.737 8.737 0 0126.155 12a8.805 8.805 0 018.82 8.816c0 .676-.074 1.332-.218 1.965a1 1 0 00.754 1.196 1.001 1.001 0 001.195-.758c.176-.774.27-1.574.27-2.403 0-5.96-4.856-10.816-10.82-10.816zm-9.976 2.004a1.901 1.901 0 00-.508.043c-1.817.402-3.621 1.719-3.672 4.07.05.328.047.68.168.977.594 1.453 1.11 2.953 1.852 4.328 3.613 6.68 9.078 11.324 16.043 14.273.832.352 1.69.426 2.53.075 1.157-.48 2.137-1.223 2.79-2.29.894-1.464.906-2.48-.567-3.562-.964-.711-1.914-1.441-2.89-2.137-1.488-1.054-3.098-1.238-4.207.614-.059.093-.145.171-.219.25-.57.605-1.27.753-2.012.449-2.816-1.16-4.992-3.032-6.304-5.817-.774-1.636-.563-2.457.882-3.547.145-.105.282-.218.414-.34.633-.578.801-1.265.426-2.042a15.99 15.99 0 00-3.406-4.72c-.387-.366-.828-.597-1.32-.624zm9.96.996c-.44 0-.878.035-1.308.11a1.003 1.003 0 00-.637 1.64c.239.277.614.406.973.328.312-.05.64-.078.973-.078C29.39 15 32 17.61 32 20.86c0 .331-.027.66-.078.972-.078.36.05.734.328.973a1.003 1.003 0 001.64-.637c.075-.43.11-.867.11-1.309C34 16.531 30.469 13 26.14 13zM26 16a1.006 1.006 0 00-.879.496 1.01 1.01 0 000 1.008c.184.312.52.5.879.496 1.668 0 3 1.332 3 3-.004.36.184.695.496.879.313.18.695.18 1.008 0 .312-.184.5-.52.496-.879 0-2.75-2.25-5-5-5z"/></svg><svg viewBox="0 0 50 50" id="wa" xmlns="http://www.w3.org/2000/svg"><path d="M25 2C12.31 2 2 12.31 2 25c0 4.08 1.119 7.886 2.984 11.209L2.037 46.73a1 1 0 001.203 1.24l10.97-2.718C17.436 46.972 21.094 48 25 48c12.69 0 23-10.31 23-23S37.69 2 25 2zm0 2c11.61 0 21 9.39 21 21s-9.39 21-21 21c-3.722 0-7.208-.97-10.238-2.666a1 1 0 00-.729-.098l-9.607 2.381 2.576-9.191a1 1 0 00-.1-.78A20.88 20.88 0 014 25C4 13.39 13.39 4 25 4zm-8.357 9c-.641 0-1.557.238-2.309 1.049-.452.487-2.334 2.32-2.334 5.545 0 3.361 2.331 6.262 2.613 6.635h.002v.001a31.669 31.669 0 003.004 3.684c1.804 1.899 4.34 4.093 7.486 5.436 1.45.617 2.593.99 3.46 1.261 1.605.504 3.067.428 4.165.266.823-.121 1.727-.516 2.622-1.082.894-.566 1.771-1.27 2.158-2.34a8.25 8.25 0 00.469-2.059 4.72 4.72 0 00.01-.787c-.02-.238 0-.42-.221-.785-.466-.764-.993-.784-1.543-1.056a183.29 183.29 0 00-2.05-.993c-.871-.415-1.626-.783-2.091-.949-.294-.106-.652-.258-1.17-.199-.517.059-1.029.432-1.326.873-.282.418-1.418 1.758-1.764 2.152-.004-.002.026.011-.111-.056-.428-.212-.952-.392-1.727-.801a14.283 14.283 0 01-2.804-1.947v-.002c-1.579-1.39-2.685-3.135-3.034-3.721.024-.028-.002.006.047-.043l.002-.002c.357-.351.673-.77.94-1.078.378-.436.545-.82.726-1.18.361-.716.16-1.503-.049-1.918v-.002c.015.029-.112-.252-.25-.576l-.5-1.195c-.374-.898-.792-1.906-1.04-2.496v-.002c-.293-.695-.69-1.196-1.208-1.438-.518-.241-.975-.173-.994-.174h-.002A26.2 26.2 0 0016.643 13zm0 2c.385 0 .765.005 1.084.02.327.016.307.017.244-.012-.064-.03.023-.04.209.402.243.578.663 1.59 1.039 2.49.188.451.363.874.504 1.205.14.332.216.517.304.694v.002l.002.002c.087.17.08.061.05.12-.212.42-.24.522-.454.768-.325.375-.657.792-.832.965-.154.151-.43.386-.604.846-.173.46-.092 1.093.186 1.564.37.629 1.59 2.613 3.484 4.282a16.35 16.35 0 003.194 2.216c.888.469 1.611.743 1.773.823.385.19.805.338 1.293.279.489-.059.91-.355 1.178-.658l.002-.002c.357-.405 1.417-1.615 1.926-2.361.021.007.014.001.183.062v.002h.002c.077.027 1.044.46 1.906.871.863.41 1.738.838 2.022.979.41.203.604.335.654.336a2.35 2.35 0 01-.006.328 6.365 6.365 0 01-.357 1.552c-.105.292-.654.893-1.346 1.33-.692.438-1.534.748-1.846.793-.937.139-2.05.189-3.273-.195a33.421 33.421 0 01-3.273-1.193c-2.776-1.184-5.135-3.198-6.82-4.973a29.716 29.716 0 01-1.999-2.338c-.48-.623-.688-.948-.863-1.178l-.002-.001c-.31-.41-2.207-3.05-2.207-5.426 0-2.516 1.168-3.503 1.8-4.184.333-.358.696-.41.843-.41z"/></svg></svg>